<svg width="68" height="53" xmlns="http://www.w3.org/2000/svg" xmlns:xlink="http://www.w3.org/1999/xlink" xmlns:svgjs="http://svgjs.com/svgjs" viewBox="42 123 68 53"><svg width="37" height="19" xmlns="http://www.w3.org/2000/svg" xmlns:xlink="http://www.w3.org/1999/xlink" xmlns:svgjs="http://svgjs.com/svgjs" viewBox="0.145 0 36.71 19" fill="#003da5" x="72" y="157"><svg xmlns="http://www.w3.org/2000/svg" xmlns:xlink="http://www.w3.org/1999/xlink" width="37" height="19" viewBox="0.534 0.207 36.188 18.73"><path paint-order="stroke fill markers" fill-rule="evenodd" d="M3.512 9.293c-.146 1.019-.237 1.765-.346 2.492-.146 1.02-.692 1.456-1.565 1.31-.782-.127-1.183-.782-1.037-1.71.327-2.11.673-4.24 1.019-6.35.127-.783.618-1.201 1.4-1.02 2.312.547 4.623 1.147 6.933 1.766.765.2.892.837.746 1.528-.163.764-.71 1.037-1.437.892-1.019-.219-2.038-.51-3.148-.783.091.674.455 1.129.746 1.583 3.02 4.95 8.989 7.788 14.557 6.77 6.15-1.129 10.244-4.695 11.99-10.773.292-.982.328-2.02.4-3.038.073-1.183.674-1.82 1.62-1.747.837.055 1.383.873 1.328 1.947-.418 8.752-7.169 15.994-15.793 16.703-7.333.6-12.92-2.474-16.886-8.624-.109-.219-.236-.455-.527-.946z"/></svg></svg><svg width="37" height="20" xmlns="http://www.w3.org/2000/svg" xmlns:xlink="http://www.w3.org/1999/xlink" xmlns:svgjs="http://svgjs.com/svgjs" viewBox="0 0.497 37 19.006" fill="#003da5" x="73" y="140"><svg xmlns="http://www.w3.org/2000/svg" xmlns:xlink="http://www.w3.org/1999/xlink" width="37" height="20" viewBox="0.292 0.923 36.149 18.569"><path paint-order="stroke fill markers" fill-rule="evenodd" d="M33.462 10.48c.127-.964.219-1.71.346-2.456.145-.982.728-1.419 1.601-1.273.764.127 1.146.782 1 1.728-.309 2.002-.6 4.003-.909 6.005-.182 1.219-.582 1.474-1.783 1.2-2.056-.49-4.112-1-6.15-1.51-.983-.254-1.401-.873-1.183-1.692.218-.819.819-1.055 1.801-.819l2.857.728c-2.602-5.913-9.098-9.389-15.502-8.37a14.475 14.475 0 0 0-12.173 12.3c-.091.564-.055 1.147-.11 1.71-.09.947-.727 1.511-1.619 1.456C.82 19.433.292 18.796.292 17.85.437 9.535 7.006 2.11 15.176 1.092c7.642-.965 14.065 2.22 17.977 8.916.054.09.127.182.31.473z"/></svg></svg><svg width="16" height="17" xmlns="http://www.w3.org/2000/svg" xmlns:xlink="http://www.w3.org/1999/xlink" xmlns:svgjs="http://svgjs.com/svgjs" viewBox="0 0.322 16 16.355" fill="#003da5" x="83" y="150"><svg xmlns="http://www.w3.org/2000/svg" xmlns:xlink="http://www.w3.org/1999/xlink" width="16" height="17" viewBox="0.226 0.528 15.195 15.532"><path paint-order="stroke fill markers" fill-rule="evenodd" d="M9.542 13.017c0 .82-.018 1.638 0 2.457.019.436-.145.582-.582.582-.728-.018-1.455-.036-2.183 0-.564.036-.728-.164-.728-.728.036-1.546-.018-3.075.018-4.621.018-.583-.127-.783-.746-.765-1.456.055-2.911 0-4.349.019-.49.018-.71-.128-.655-.656.091-.855-.364-1.983.182-2.51.437-.42 1.547-.128 2.366-.146.819-.018 1.637-.036 2.438.018.655.037.891-.127.873-.837-.054-1.51 0-3.02-.036-4.53-.018-.565.11-.82.728-.765.691.037 1.383.037 2.092 0 .492-.018.619.164.619.619-.018 1.565.018 3.148-.018 4.713-.019.655.2.8.819.782 1.382-.036 2.783 0 4.166-.018.564-.018.856.09.783.728-.091.837.364 1.946-.182 2.438-.455.418-1.547.127-2.366.145-.819.019-1.637.037-2.456 0-.546-.018-.837.073-.783.728.055.783.019 1.565.019 2.347h-.019z"/></svg></svg><svg width="58" height="39" xmlns="http://www.w3.org/2000/svg" xmlns:xlink="http://www.w3.org/1999/xlink" xmlns:svgjs="http://svgjs.com/svgjs" viewBox="0 0.131 58 38.737" fill="#003da5" x="42" y="123"><svg xmlns="http://www.w3.org/2000/svg" width="58" height="39" viewBox="0 0.679 57.311 38.278"><path paint-order="stroke fill markers" fill-rule="evenodd" d="M57.311 6.665c0-3.748-2.22-5.986-5.968-5.986H5.891C2.324.679.03 2.935.014 6.483c-.019 8.861-.019 17.704 0 26.565 0 .91.109 1.82.51 2.639 1.109 2.238 2.983 3.22 5.421 3.22H26.18c.546 0 1.237.164 1.583-.109.418-.327-.11-1-.037-1.528.128-.8-.254-.983-1.019-.983-6.932.037-13.846.019-20.779.019-2.329 0-3.42-1.11-3.42-3.458 0-5.113.018-10.226-.019-15.32 0-.874.255-1.02 1.055-1.02 11.646.019 23.29.037 34.936.019a4.08 4.08 0 0 0 1.674-.31c5.404-2.365 10.88-2.456 16.376-.327.691.273.782.11.782-.564-.018-2.838 0-5.75 0-8.661zm-3.075 3.057c-.218-.018-.418 0-.637 0H28.562c-8.37 0-16.758-.018-25.128.018-.764 0-1-.218-.928-.946.073-.728.019-1.51.019-2.256.018-2.184 1.11-3.294 3.275-3.294h45.452c2.493 0 3.494 1.02 3.494 3.53 0 .819-.018 1.638 0 2.457.036.363-.11.527-.51.49z"/></svg></svg></svg>