<svg width="53" height="54" xmlns="http://www.w3.org/2000/svg" xmlns:xlink="http://www.w3.org/1999/xlink" xmlns:svgjs="http://svgjs.com/svgjs" viewBox="39 349 53 54"><svg width="53" height="54" xmlns="http://www.w3.org/2000/svg" xmlns:xlink="http://www.w3.org/1999/xlink" xmlns:svgjs="http://svgjs.com/svgjs" viewBox="0 0.493 53 53.014" fill="#003da5" x="39" y="349"><svg xmlns="http://www.w3.org/2000/svg" xmlns:xlink="http://www.w3.org/1999/xlink" width="53" height="54" viewBox="0 0.742 52.986 53"><path paint-order="stroke fill markers" fill-rule="evenodd" d="M26.498 4.094c-11.082 0-20.143 7.801-22.508 17.778C1.32 33.088 7.233 44.018 17.209 48.5a22.108 22.108 0 0 0 11.674 1.793 23.566 23.566 0 0 0 8.889-2.823c.19-.114.4-.21.59-.286.802-.267 1.05-.095 1.07.725.075 2.423.095 2.48-2.1 3.414-9.384 3.949-18.311 3.11-26.59-2.86-5.57-4.026-9.041-9.557-10.262-16.31-1.526-8.45.591-15.985 6.276-22.47a25.474 25.474 0 0 1 14.706-8.431c6.486-1.24 12.704-.23 18.389 3.166 6.981 4.177 11.292 10.32 12.723 18.35.934 5.208.267 10.263-1.889 15.108-.305.686-1.22.953-2.289.705-.705-.171-.42-.724-.496-1.163-.229-1.526.573-2.823.935-4.216 1.412-5.417 1.011-10.644-1.392-15.718-3.052-6.447-8.088-10.548-14.879-12.57-1.946-.553-4.006-.82-6.066-.82z"/></svg></svg><svg width="17" height="34" xmlns="http://www.w3.org/2000/svg" xmlns:xlink="http://www.w3.org/1999/xlink" xmlns:svgjs="http://svgjs.com/svgjs" viewBox="0.158 0 16.683 34" fill="#003da5" x="57" y="359"><svg xmlns="http://www.w3.org/2000/svg" xmlns:xlink="http://www.w3.org/1999/xlink" width="17" height="34" viewBox="0.396 0.574 16.329 33.278"><path paint-order="stroke fill markers" fill-rule="evenodd" d="M10.158 2.468a5.1 5.1 0 0 1 0 .763c-.076.648.152.992.858 1.068 1.011.114 1.946.572 2.842 1.01 1.679.821 2.29 2.252 2.213 4.064-.057 1.45-.019 1.45-1.45 1.45a1.996 1.996 0 0 0-.477 0c-.953.133-1.545-.02-1.392-1.221.076-.687-.458-1.26-1.068-1.564-1.64-.82-3.338-.973-5.036-.21-2.518 1.144-2.785 4.158-.439 5.608 1.927 1.182 4.044 2.079 6.028 3.204 1.297.725 2.613 1.507 3.433 2.785 2.213 3.491.992 9.214-4.12 10.701-1.392.401-1.392.382-1.392 1.813v.095c0 1.888 0 1.87-1.908 1.793-.591-.02-.763-.248-.744-.801.039-.63 0-1.278.02-1.908.019-.438-.096-.725-.592-.782-2.88-.324-4.807-2.06-6.37-4.349-.23-.343-.23-.553.037-.801a1 1 0 0 0 .21-.19c1.812-1.641 1.85-1.68 3.357.228 1.698 2.175 5.646 2.499 7.401 1.183 2.06-1.545 2.137-4.464-.019-5.837-2.06-1.297-4.273-2.327-6.352-3.586-1.736-1.05-3.376-2.194-3.948-4.368-.859-3.224.648-6.467 3.777-7.802.267-.115.534-.19.8-.286 1.698-.553 1.698-.553 1.698-2.385v-.858c0-.42.172-.61.61-.648 1.966-.172 2.023-.115 2.023 1.83z"/></svg></svg><svg width="18" height="18" xmlns="http://www.w3.org/2000/svg" xmlns:xlink="http://www.w3.org/1999/xlink" xmlns:svgjs="http://svgjs.com/svgjs" viewBox="0.03 0 17.94 18" fill="#003da5" x="74" y="383"><svg xmlns="http://www.w3.org/2000/svg" width="18" height="18" viewBox="0.138 0.232 17.205 17.263"><path paint-order="stroke fill markers" fill-rule="evenodd" d="M10.478 13.528c0 .705.019 1.392 0 2.098-.02 1.087-.763 1.869-1.755 1.869-.897 0-1.66-.801-1.679-1.85-.038-1.393-.057-2.785 0-4.178.039-.8-.248-.953-.972-.934-1.298.057-2.595.019-3.892.019-1.201 0-2.003-.668-2.04-1.66C.1 7.862.92 7.118 2.16 7.08a72.876 72.876 0 0 1 4.082 0c.63.02.82-.19.801-.801-.038-1.297-.019-2.594 0-3.891C7.064.995 7.712.213 8.78.232c1.068.02 1.717.801 1.717 2.175 0 1.297.038 2.594-.02 3.891-.018.61.134.82.783.801 1.392-.057 2.785-.038 4.177 0 1.011.02 1.736.61 1.87 1.43.21 1.164-.496 2.004-1.774 2.042a79.84 79.84 0 0 1-4.273 0c-.63-.02-.84.171-.801.801.076.706.019 1.43.019 2.156z"/></svg></svg></svg>