<svg xmlns="http://www.w3.org/2000/svg" width="23.123" height="23.113" viewBox="0 0 23.123 23.113">
<style type="text/css">
	.st0{fill:#FFFFFF;stroke:#FFFFFF;}
</style>
  <g id="noun_Close_1015372" transform="translate(11.588 22.354) rotate(-135)">
    <path id="Path_531" class="st0" data-name="Path 531" d="M.692,15.295A.7.7,0,0,1,.2,14.109L14.108.2a.7.7,0,1,1,.984.984L1.186,15.093A.7.7,0,0,1,.692,15.295Z" transform="translate(0 0.001)" fill="#fff" stroke="#fff" stroke-width="1"/>
    <path id="Path_532" class="st0" data-name="Path 532" d="M14.6,15.3a.7.7,0,0,1-.49-.205L.2,1.188A.7.7,0,0,1,1.188.2L15.093,14.109A.7.7,0,0,1,14.6,15.3Z" transform="translate(0 0)" fill="#fff" stroke="#fff" stroke-width="1"/>
  </g>
</svg>
