<svg width="55" height="54" xmlns="http://www.w3.org/2000/svg" xmlns:xlink="http://www.w3.org/1999/xlink" xmlns:svgjs="http://svgjs.com/svgjs" viewBox="0.449 0 54.101 54" fill="#003da5"><svg xmlns="http://www.w3.org/2000/svg" width="55" height="54" viewBox="1 0.985 53.099 53"><path paint-order="stroke fill markers" fill-rule="evenodd" d="M27.529.986C12.999.888.98 12.849.999 27.456c0 14.647 11.863 26.53 26.51 26.53h.079c14.647-.04 26.686-12 26.51-26.843C53.92 12.673 41.96.888 27.527.986zm14.235 44.803c-3.823 2.902-8.078 4.667-12.921 4.824-.432.02-.843.078-1.255.098a22.967 22.967 0 0 1-14.059-4.765c-.941-.706-.921-.764.137-1.176l8.53-3.353c2.215-.863 2.921-3.55 1.215-5.196a11.55 11.55 0 0 1-3.529-6.784c-.04-.314-.353-.667 0-.902.255-.177.627 0 .941.117.941.353 1.824.824 2.824 1.059 1 .235 1.764.02 2.372-.863.275-.411.53-.882 1.118-1.039.843-.235 1.412.157 1.784.824.686 1.157 1.647 1.411 2.824 1 .862-.294 1.686-.667 2.529-1 .922-.353 1.098-.196.941.745-.412 2.568-1.314 4.843-3.294 6.666-1.902 1.765-1.314 4.432 1.098 5.393a461.2 461.2 0 0 0 8.608 3.392c.745.313.706.529.137.96zm3.882-3.823c-.431.568-.823.725-1.549.431-2.882-1.176-5.803-2.255-8.725-3.392-1.059-.412-1.137-.686-.353-1.47 2.118-2.138 2.843-4.902 3.412-7.726.196-1 .372-1.941.902-2.902a3.192 3.192 0 0 0-.275-3.666c-.588-.726-.333-1.471-.274-2.216.039-.431.47-.333.784-.373 1.098-.176 2.196-.353 2.98-1.235 1.353-1.51 1.373-2.921-.058-4.372-1.177-1.196-2.55-2.118-4.02-2.902C34.137 9.77 29.568 8.26 24.549 8.22c-5.785-.039-10.49 4.608-11.628 9.275-.412 1.647.569 3.058 2.236 3.294 1.254.176 1.686 1.274.902 2.372-.961 1.373-.883 3.059.039 4.51.53.823.372 1.882.608 2.823.666 2.726 1.51 5.314 3.607 7.314.53.51.353.824-.255 1.059a782.005 782.005 0 0 0-9.43 3.686c-.51.196-.766.02-1.06-.353-2.686-3.372-4.411-7.157-5.02-11.45-.881-6.393.609-12.138 4.491-17.236 3.745-4.921 8.706-7.902 14.843-8.862.608-.098 1.216-.216 1.823-.255.589-.04 1.177 0 1.765 0 5.804-.02 10.745 2.196 15.04 5.98a24.038 24.038 0 0 1 6.803 9.941c2.04 5.588 1.725 11.098-.627 16.51a20.994 20.994 0 0 1-3.04 5.137zM18.53 18.358c-.882 0-1.863.06-2.372-.823-.55-.941.117-1.726.588-2.51 1.843-2.98 4.725-4.118 8-4.274 5.588-.236 10.47 1.843 15 4.901.313.236.548.569.705.922.432.863.216 1.373-.745 1.53-.804.137-1.607.215-2.411.215-3.098.02-6.196.02-9.275.02-3.157.02-6.333.039-9.49.02zm16.078 7.432c-.431.529-1.686 1.137-2.588 1.156-.294-.078-.765-.215-1.235-.353-.47-.137-1.137-.156-1.216-.627-.098-.588.569-.863 1.02-1.157.882-.549 3.157-.314 3.98.334.275.235.235.411.04.647zm-9.411.47c-.745.275-1.53.51-2.138.726-1-.079-1.94-.51-2.647-1.216-.255-.235-.196-.392.06-.608 1.372-1.098 3.607-.941 4.803.314.275.314.451.588-.078.784zm-5.647-4.588c.02-.765.431-.667.96-.667 3.942.04 7.883.04 11.804.04a33.6 33.6 0 0 0 2.432-.079c.47-.04.804-.02.705.569-.078.45.275 1.137-.647 1.117-1.176-.02-2.353 0-3.51 0H27.49c-2.353 0-4.686-.02-7.04.02-.744 0-.92-.314-.901-1z"/></svg></svg>