<svg xmlns="http://www.w3.org/2000/svg" width="181" height="55.458"><g transform="translate(-13.78 -5)"><path data-name="Path 518" d="M86.612 38.162a7.64 7.64 0 01-2.81 3.31 7.1 7.1 0 01-4.184 1.187 7.874 7.874 0 01-5.621-2.186 7.427 7.427 0 01-.25-10.554l.25-.25a7.687 7.687 0 015.5-2.184 8.216 8.216 0 014.372 1.187 6.8 6.8 0 012.81 3.248h-2.186a5.4 5.4 0 00-2.061-1.874 6.43 6.43 0 00-2.81-.687 5.793 5.793 0 00-4.184 1.624 5.424 5.424 0 00-1.749 4.059 5.6 5.6 0 005.5 5.746h.25a5.744 5.744 0 002.873-.687 7.093 7.093 0 002.186-2.123z" fill="#5b6770"/><path data-name="Path 519" d="M102.787 35.036a7.451 7.451 0 01-2.186 5.371 7.186 7.186 0 01-5.308 2.311 7.556 7.556 0 01-5.371-2.186 7.367 7.367 0 01-2.248-5.308 7.17 7.17 0 012.248-5.433 7.5 7.5 0 0110.617-.062l.062.062a7.42 7.42 0 012.186 5.245zm-13.177.187a5.6 5.6 0 005.621 5.621 5.2 5.2 0 004-1.686 5.914 5.914 0 001.624-4.122 5.261 5.261 0 00-.437-2.186 8.2 8.2 0 00-1.686-2.186 4.462 4.462 0 00-3.5-1.187 5.331 5.331 0 00-4 1.686 5.277 5.277 0 00-1.622 4.064z" fill="#5b6770"/><path data-name="Path 520" d="M104.786 27.733h1.874v1.811a3.483 3.483 0 011.561-1.436 5.911 5.911 0 012.311-.5 6.392 6.392 0 012.623.562 5.813 5.813 0 012.061 1.624l.375.562.312-.562a5.113 5.113 0 012-1.624 6.109 6.109 0 012.561-.562 4.619 4.619 0 012.248.562 7.907 7.907 0 012.061 1.5 5.153 5.153 0 011.249 2 8.5 8.5 0 01.25 2.5v8.306h-1.936v-8.123a16.461 16.461 0 00-.125-1.749 4.788 4.788 0 00-1-1.936 3.364 3.364 0 00-2.873-1.187 3.138 3.138 0 00-2.81 1.124 4.306 4.306 0 00-.874 1.874c-.062.625-.125 1.249-.125 1.874v8.119h-1.936v-8.364a12.169 12.169 0 00-.125-1.561 5.289 5.289 0 00-.937-1.874 3.206 3.206 0 00-2.873-1.187 4.48 4.48 0 00-1.811.375 4.033 4.033 0 00-1.374 1.124 5.3 5.3 0 00-.562 1.374 7.959 7.959 0 00-.125 1.749v8.3h-1.936z" fill="#5b6770"/><path data-name="Path 521" d="M130.266 35.851a4.5 4.5 0 001.686 3.5 5.57 5.57 0 003.747 1.5 6.034 6.034 0 003.123-.874 4.782 4.782 0 002.123-2.311h2.061a7.616 7.616 0 01-7.057 5.059 7.3 7.3 0 01-5.371-2.186 7.509 7.509 0 01-2.248-5.371 7.3 7.3 0 012.186-5.371 7.532 7.532 0 018.556-1.5 6.653 6.653 0 012.561 2 6.8 6.8 0 011.374 2.561 12.319 12.319 0 01.375 3zm11.117-1.749a5.465 5.465 0 00-1.936-3.248 5.1 5.1 0 00-3.622-1.312 5.788 5.788 0 00-3.685 1.312 5.056 5.056 0 00-1.936 3.31h11.179z" fill="#5b6770"/><path data-name="Path 522" d="M145.63 27.92h1.874v2.061a5.433 5.433 0 014.5-2.436 6.172 6.172 0 012.81.625A5.3 5.3 0 01157 29.856a5.735 5.735 0 011.187 2.186 9.8 9.8 0 01.25 2.685v7.618h-1.936v-7.556a11.681 11.681 0 00-.187-2.123 7.287 7.287 0 00-1.062-1.936c-.562-.812-1.686-1.249-3.31-1.249a4.441 4.441 0 00-2 .437 3.592 3.592 0 00-1.5 1.249 3.77 3.77 0 00-.687 1.624 10.745 10.745 0 00-.125 2v7.619h-2z" fill="#5b6770"/><path data-name="Rectangle 216" fill="#5b6770" d="M161.93 27.733h1.936v14.676h-1.936z"/><path data-name="Path 523" d="M169.177 29.669h-3V27.92h3v-5.121h1.936v5.059h3.372v1.749h-3.372v12.74h-1.936z" fill="#5b6770"/><circle data-name="Ellipse 17" cx="1.249" cy="1.249" r="1.249" transform="translate(161.618 23.424)" fill="#5b6770"/><circle data-name="Ellipse 18" cx="2.498" cy="2.498" r="2.498" transform="translate(57.572 11.807)" fill="#5b6770"/><circle data-name="Ellipse 19" cx="3.185" cy="3.185" r="3.185" transform="translate(62.755 53.463)" fill="#5b6770"/><path data-name="Path 525" d="M38.211 50.778v-.25a16.077 16.077 0 11-9.868-30.6 16.335 16.335 0 019.93 0 3.334 3.334 0 011.062-3.31 19.533 19.533 0 10.187 37.1 3.527 3.527 0 01-1.311-2.94z" fill="#49c5b1" fill-rule="evenodd"/><circle data-name="Ellipse 20" cx="3.185" cy="3.185" r="3.185" transform="translate(55.198 50.028)" fill="#003da5"/><circle data-name="Ellipse 21" cx="3.185" cy="3.185" r="3.185" transform="translate(45.019 41.972)" fill="#003da5"/><circle data-name="Ellipse 22" cx="3.185" cy="3.185" r="3.185" transform="translate(55.448 31.73)" fill="#003da5"/><circle data-name="Ellipse 23" cx="3.185" cy="3.185" r="3.185" transform="translate(49.952 6.624)" fill="#003da5"/><circle data-name="Ellipse 24" cx="3.185" cy="3.185" r="3.185" transform="translate(45.393 21.675)" fill="#003da5"/><circle data-name="Ellipse 25" cx="3.185" cy="3.185" r="3.185" transform="translate(61.818 5)" fill="#49c5b1"/><circle data-name="Ellipse 26" cx="2.498" cy="2.498" r="2.498" transform="translate(65.191 17.178)" fill="#49c5b1"/><circle data-name="Ellipse 27" cx="3.185" cy="3.185" r="3.185" transform="translate(48.454 14.555)" fill="#49c5b1"/><circle data-name="Ellipse 28" cx="3.185" cy="3.185" r="3.185" transform="translate(48.204 28.357)" fill="#49c5b1"/><circle data-name="Ellipse 29" cx="3.185" cy="3.185" r="3.185" transform="translate(57.759 42.472)" fill="#49c5b1"/><circle data-name="Ellipse 30" cx="3.185" cy="3.185" r="3.185" transform="translate(47.017 49.591)" fill="#49c5b1"/><circle data-name="Ellipse 31" cx="1.936" cy="1.936" r="1.936" transform="translate(50.827 56.586)" fill="#49c5b1"/><circle data-name="Ellipse 32" cx="1.936" cy="1.936" r="1.936" transform="translate(52.7 42.659)" fill="#49c5b1"/><circle data-name="Ellipse 33" cx="3.185" cy="3.185" r="3.185" transform="translate(48.079 35.477)" fill="#49c5b1"/><circle data-name="Ellipse 34" cx="3.185" cy="3.185" r="3.185" transform="translate(59.008 24.985)" fill="#49c5b1"/><circle data-name="Ellipse 35" cx="3.185" cy="3.185" r="3.185" transform="translate(40.272 16.241)" fill="#49c5b1"/><circle data-name="Ellipse 36" cx="3.185" cy="3.185" r="3.185" transform="translate(40.147 47.218)" fill="#49c5b1"/><path data-name="Path 526" d="M189.971 27.92l-8.369 19.548h-2.061l2.248-5.5-5.558-14.048h2.123l4.621 11.491 4.935-11.491z" fill="#5b6770"/><path data-name="Path 527" d="M191.158 29.794a1.375 1.375 0 01.062-.5c.062-.125.125-.312.187-.437s.187-.25.25-.375c.125-.125.25-.187.375-.312a3.044 3.044 0 01.437-.187 1.218 1.218 0 01.5-.062 1.375 1.375 0 01.5.062c.125.062.312.125.437.187a1.505 1.505 0 01.625.625 3.041 3.041 0 01.187.437 1.217 1.217 0 01.062.5 1.375 1.375 0 01-.062.5c-.062.125-.125.312-.187.437a1.656 1.656 0 01-.312.375c-.125.125-.25.187-.375.312a3.045 3.045 0 01-.437.187 2.03 2.03 0 01-1 0c-.125-.062-.312-.125-.437-.187a1.656 1.656 0 01-.375-.312 1.306 1.306 0 01-.25-.375 3.041 3.041 0 01-.187-.437zm.375 0a2.219 2.219 0 00.125.625 2.192 2.192 0 00.312.5 1.36 1.36 0 00.5.312 1.327 1.327 0 001.124 0 1.121 1.121 0 00.437-.312 1.36 1.36 0 00.312-.5 2.219 2.219 0 00.125-.625 1.663 1.663 0 00-.187-.749 1.1 1.1 0 00-.25-.312 1.363 1.363 0 00-.312-.25.888.888 0 00-.375-.125 1.155 1.155 0 00-.749 0c-.125.062-.25.062-.375.125a1.1 1.1 0 00-.312.25 1.363 1.363 0 00-.25.312.888.888 0 00-.125.375zm1.124.25v.812h-.5v-2.187h.749a1.424 1.424 0 01.687.187.675.675 0 01.187.437.887.887 0 01-.125.375.574.574 0 01-.375.25.061.061 0 01.062.062l.062.125.437.749h-.5c-.062 0-.125 0-.125-.062l-.312-.625-.062-.062h-.062zm0-.375h.437c.062 0 .062-.062.125-.062a.218.218 0 00.062-.125v-.25c0-.062 0-.062-.062-.125-.062 0-.062-.062-.125-.062h-.436z" fill="#5b6770"/></g></svg>