<svg width="49" height="54" xmlns="http://www.w3.org/2000/svg" xmlns:xlink="http://www.w3.org/1999/xlink" xmlns:svgjs="http://svgjs.com/svgjs" viewBox="37 576 49 54"><svg width="49" height="54" xmlns="http://www.w3.org/2000/svg" xmlns:xlink="http://www.w3.org/1999/xlink" xmlns:svgjs="http://svgjs.com/svgjs" viewBox="0 0.03 49 53.94" fill="#003da5" x="37" y="576"><svg xmlns="http://www.w3.org/2000/svg" xmlns:xlink="http://www.w3.org/1999/xlink" width="49" height="54" viewBox="0 0.978 48.146 53"><path paint-order="stroke fill markers" fill-rule="evenodd" d="M47.942 6.505c-.018-1.125-.712-1.763-1.8-1.67a47.064 47.064 0 0 1-6.509.17c-5.12-.188-10.091-.938-14.555-3.714-.675-.432-1.37-.413-2.101.037a19.972 19.972 0 0 1-5.158 2.326C12.661 5.117 7.409 5.286 2.101 4.836.957 4.742.206 5.342.169 6.468c-.15 5.045-.375 10.09.225 15.118.9 7.652 3.489 14.63 8.009 20.913 3.808 5.327 8.928 8.816 14.874 11.31a2.011 2.011 0 0 0 1.613 0c4.333-1.763 8.366-4.07 11.61-7.446 5.065-5.252 8.347-11.535 10.13-18.607 1.219-4.839 1.5-9.753 1.481-15.193.131-1.706-.15-3.882-.169-6.058zm-3.901 18.794c-1.463 6.978-4.408 13.186-9.303 18.4-2.889 3.096-6.528 5.159-10.317 6.94-.375.17-.656.057-.975-.093-3.395-1.594-6.621-3.47-9.36-6.059-2.4-2.25-4.257-4.951-5.852-7.821-3.038-5.477-4.558-11.385-5.027-17.613-.15-1.857-.093-3.732-.13-5.59v-3.92c0-1.406.093-1.5 1.462-1.406 4.258.244 8.534-.15 12.698-1.126a22.056 22.056 0 0 0 5.984-2.288c.581-.319 1.031-.281 1.613.019 3.695 1.932 7.69 2.795 11.798 3.226 2.57.263 5.158.319 7.728.113.544-.038.544.206.544.581.15 5.552.281 11.123-.863 16.637z"/></svg></svg><svg width="28" height="20" xmlns="http://www.w3.org/2000/svg" xmlns:xlink="http://www.w3.org/1999/xlink" xmlns:svgjs="http://svgjs.com/svgjs" viewBox="0.143 0 27.715 20" fill="#003da5" x="48" y="591"><svg xmlns="http://www.w3.org/2000/svg" width="28" height="20" viewBox="0.966 0.674 26.049 18.798"><path paint-order="stroke fill markers" fill-rule="evenodd" d="M10.195 19.471a2.347 2.347 0 0 1-1.425-.656c-2.345-2.364-4.727-4.708-7.053-7.09C.78 10.787.723 9.699 1.53 8.93c.77-.75 1.782-.713 2.739.206a227.72 227.72 0 0 1 5.214 5.215c.507.525.807.544 1.332 0A1963.64 1963.64 0 0 1 23.231 1.82c.206-.225.45-.431.675-.637.9-.713 2.007-.676 2.683.093.637.713.562 1.763-.244 2.589-4.708 4.745-9.435 9.49-14.162 14.236-.469.469-.806 1.144-1.556 1.276-.15.018-.3.056-.432.093z"/></svg></svg></svg>